<svg xmlns="http://www.w3.org/2000/svg" xmlns:xlink="http://www.w3.org/1999/xlink" width="1024" zoomAndPan="magnify" viewBox="0 0 768 767.999994" height="1024" preserveAspectRatio="xMidYMid meet" version="1.0"><defs><clipPath id="d33c1d1879"><path d="M 144.019531 305 L 443 305 L 443 606.417969 L 144.019531 606.417969 Z M 144.019531 305 " clip-rule="nonzero"/></clipPath><clipPath id="7af087be66"><path d="M 358 161.667969 L 657 161.667969 L 657 606.417969 L 358 606.417969 Z M 358 161.667969 " clip-rule="nonzero"/></clipPath><clipPath id="a785f74786"><path d="M 144.019531 572 L 391 572 L 391 606.417969 L 144.019531 606.417969 Z M 144.019531 572 " clip-rule="nonzero"/></clipPath><clipPath id="ef2e4f0350"><path d="M 358 228 L 657 228 L 657 606.417969 L 358 606.417969 Z M 358 228 " clip-rule="nonzero"/></clipPath><clipPath id="c9323d8a8e"><path d="M 358 161.667969 L 401 161.667969 L 401 234 L 358 234 Z M 358 161.667969 " clip-rule="nonzero"/></clipPath></defs><g clip-path="url(#d33c1d1879)"><path fill="#ff7300" d="M 400.441406 305.882812 L 317.328125 305.882812 L 144.019531 606.070312 L 393.363281 606.070312 L 442.007812 521.816406 L 407.519531 462.109375 L 400.441406 449.84375 L 393.363281 462.109375 L 351.800781 534.085938 L 268.699219 534.085938 Z M 400.441406 305.882812 " fill-opacity="1" fill-rule="evenodd"/></g><g clip-path="url(#7af087be66)"><path fill="#83858c" d="M 656.878906 606.070312 L 528.660156 383.988281 L 400.441406 161.921875 L 358.890625 233.910156 L 378.015625 267.03125 L 400.441406 305.882812 L 423.25 345.375 L 532.199219 534.085938 L 554.628906 572.933594 L 573.765625 606.070312 Z M 656.878906 606.070312 " fill-opacity="1" fill-rule="evenodd"/></g><path fill="#f4a66e" d="M 400.441406 305.882812 L 335.902344 339.976562 L 201.40625 572.933594 L 268.699219 534.085938 Z M 400.441406 305.882812 " fill-opacity="1" fill-rule="evenodd"/><g clip-path="url(#a785f74786)"><path fill="#f4a66e" d="M 201.40625 572.933594 L 144.019531 606.070312 L 390.835938 606.070312 L 372.863281 572.933594 Z M 201.40625 572.933594 " fill-opacity="1" fill-rule="evenodd"/></g><path fill="#f4a66e" d="M 351.800781 534.085938 L 372.863281 572.933594 L 394.464844 534.085938 L 402.984375 518.761719 L 400.441406 449.84375 Z M 351.800781 534.085938 " fill-opacity="1" fill-rule="evenodd"/><g clip-path="url(#ef2e4f0350)"><path fill="#68696e" d="M 423.25 345.375 L 532.199219 534.085938 L 554.628906 572.933594 L 573.765625 606.070312 L 656.878906 606.070312 L 599.496094 572.933594 L 400.441406 228.179688 L 358.890625 233.910156 L 378.015625 267.03125 L 400.441406 305.882812 Z M 423.25 345.375 " fill-opacity="1" fill-rule="evenodd"/></g><g clip-path="url(#c9323d8a8e)"><path fill="#8b8d93" d="M 400.441406 228.179688 L 400.441406 161.921875 L 358.890625 233.910156 Z M 400.441406 228.179688 " fill-opacity="1" fill-rule="evenodd"/></g></svg>