<svg xmlns="http://www.w3.org/2000/svg" xmlns:xlink="http://www.w3.org/1999/xlink" width="500" zoomAndPan="magnify" viewBox="0 0 375 374.999991" height="500" preserveAspectRatio="xMidYMid meet" version="1.0"><defs><filter x="0%" y="0%" width="100%" height="100%" id="6c553648f5"><feColorMatrix values="0 0 0 0 1 0 0 0 0 1 0 0 0 0 1 0 0 0 1 0" color-interpolation-filters="sRGB"/></filter><g/><clipPath id="2cc99c29f1"><path d="M 101.023438 89 L 257.773438 89 L 257.773438 247.191406 L 101.023438 247.191406 Z M 101.023438 89 " clip-rule="nonzero"/></clipPath><clipPath id="f90a5654d3"><path d="M 143 132 L 257.773438 132 L 257.773438 247.191406 L 143 247.191406 Z M 143 132 " clip-rule="nonzero"/></clipPath><mask id="2f5948396c"><g filter="url(#6c553648f5)"><rect x="-37.5" width="450" fill="#000000" y="-37.499999" height="449.999989" fill-opacity="0.6"/></g></mask><clipPath id="df434e72cf"><path d="M 0.0507812 41 L 67.921875 41 L 67.921875 67.359375 L 0.0507812 67.359375 Z M 0.0507812 41 " clip-rule="nonzero"/></clipPath><clipPath id="fa2712622b"><path d="M 0.0507812 0.398438 L 67.921875 0.398438 L 67.921875 27 L 0.0507812 27 Z M 0.0507812 0.398438 " clip-rule="nonzero"/></clipPath><clipPath id="8a15543c87"><rect x="0" width="68" y="0" height="68"/></clipPath></defs><rect x="-37.5" width="450" fill="#ffffff" y="-37.499999" height="449.999989" fill-opacity="1"/><rect x="-37.5" width="450" fill="#f8f8f8" y="-37.499999" height="449.999989" fill-opacity="1"/><path fill="#03466e" d="M 128.996094 177.632812 C 136.835938 161.40625 147.042969 147.390625 159.328125 135.957031 L 159.328125 129.828125 L 166.421875 129.828125 C 180.183594 118.796875 196.253906 110.609375 214.339844 105.421875 C 213.800781 105.179688 213.261719 104.941406 212.714844 104.714844 C 203.554688 100.839844 193.832031 98.875 183.820312 98.875 L 128.371094 98.875 L 128.371094 178.949219 C 128.582031 178.511719 128.785156 178.070312 128.996094 177.632812 " fill-opacity="1" fill-rule="nonzero"/><g clip-path="url(#2cc99c29f1)"><path fill="#f36917" d="M 207.640625 94.996094 C 185.277344 100.945312 165.898438 111.386719 150.046875 126.035156 C 137.609375 137.519531 127.292969 151.644531 119.382812 168.019531 C 113.164062 180.882812 108.417969 195.148438 105.273438 210.421875 C 102.136719 225.648438 101.21875 238.847656 101.007812 247.304688 L 129.75 247.304688 C 129.96875 240.023438 130.8125 228.527344 133.585938 215.386719 C 139.695312 186.429688 151.839844 163.421875 169.679688 147.003906 C 191.070312 127.320312 220.679688 117.53125 257.960938 117.75 L 257.960938 89.035156 C 239.761719 88.941406 222.925781 90.933594 207.640625 94.996094 " fill-opacity="1" fill-rule="nonzero"/></g><g clip-path="url(#f90a5654d3)"><path fill="#03466e" d="M 245.667969 132.042969 C 232.644531 132.859375 220.824219 135.140625 210.261719 138.878906 C 220.488281 146.796875 227.082031 159.1875 227.082031 173.089844 C 227.082031 196.945312 207.675781 216.351562 183.820312 216.351562 L 159.328125 216.351562 L 159.328125 183.5 C 154.023438 193.667969 149.984375 205.28125 147.242188 218.269531 C 144.730469 230.160156 143.945312 240.644531 143.722656 247.304688 L 183.820312 247.304688 C 193.832031 247.304688 203.554688 245.339844 212.714844 241.464844 C 221.554688 237.726562 229.488281 232.378906 236.300781 225.566406 C 243.113281 218.757812 248.460938 210.820312 252.199219 201.980469 C 255.640625 193.84375 257.574219 185.257812 257.960938 176.417969 L 257.960938 169.757812 C 257.574219 160.921875 255.640625 152.335938 252.199219 144.195312 C 250.394531 139.925781 248.207031 135.867188 245.667969 132.042969 " fill-opacity="1" fill-rule="nonzero"/></g><g fill="#03466e" fill-opacity="1"><g transform="translate(96.629072, 289.661379)"><g><path d="M 15.765625 0 L 15.765625 -3.921875 L 6.15625 -3.921875 L 6.15625 -7.921875 L 14.359375 -7.921875 L 14.359375 -11.84375 L 6.15625 -11.84375 L 6.15625 -15.8125 L 15.765625 -15.8125 L 15.765625 -19.734375 L 1.6875 -19.734375 L 1.6875 0 Z M 15.765625 0 "/></g></g></g><g fill="#03466e" fill-opacity="1"><g transform="translate(113.510765, 289.661379)"><g><path d="M 5.71875 0 L 11.03125 -7.59375 L 16.375 0 L 21.53125 0 L 14.84375 -9.328125 L 14.84375 -10.4375 L 21.53125 -19.734375 L 16.375 -19.734375 L 11.03125 -12.1875 L 5.71875 -19.734375 L 0.5625 -19.734375 L 7.21875 -10.4375 L 7.21875 -9.328125 L 0.5625 0 Z M 5.71875 0 "/></g></g></g><g fill="#03466e" fill-opacity="1"><g transform="translate(135.599749, 289.661379)"><g><path d="M 8.765625 -19.734375 L 1.6875 -19.734375 L 1.6875 0 L 6.15625 0 L 6.15625 -5.875 L 8.765625 -5.875 C 13.75 -5.875 17.5625 -6.828125 17.5625 -12.828125 C 17.5625 -18.78125 13.75 -19.734375 8.765625 -19.734375 Z M 6.15625 -9.796875 L 6.15625 -15.8125 L 9.046875 -15.8125 C 11.703125 -15.8125 13.078125 -15.546875 13.078125 -12.828125 C 13.078125 -10.078125 11.703125 -9.796875 9.046875 -9.796875 Z M 6.15625 -9.796875 "/></g></g></g><g fill="#03466e" fill-opacity="1"><g transform="translate(154.273199, 289.661379)"><g><path d="M 1.40625 -9.890625 C 1.40625 -4.109375 5.203125 0.28125 11.484375 0.28125 C 17.71875 0.28125 21.53125 -4.109375 21.53125 -9.890625 C 21.53125 -15.625 17.71875 -20.015625 11.484375 -20.015625 C 5.203125 -20.015625 1.40625 -15.625 1.40625 -9.890625 Z M 5.875 -9.890625 C 5.875 -13.65625 7.75 -16.09375 11.484375 -16.09375 C 15.203125 -16.09375 17.046875 -13.65625 17.046875 -9.890625 C 17.046875 -6.078125 15.203125 -3.640625 11.484375 -3.640625 C 7.75 -3.640625 5.875 -6.078125 5.875 -9.890625 Z M 5.875 -9.890625 "/></g></g></g><g fill="#03466e" fill-opacity="1"><g transform="translate(177.202076, 289.661379)"><g><path d="M 0.84375 -19.734375 L 0.84375 -15.8125 L 7.3125 -15.8125 L 7.3125 0 L 11.78125 0 L 11.78125 -15.8125 L 18.234375 -15.8125 L 18.234375 -19.734375 Z M 0.84375 -19.734375 "/></g></g></g><g fill="#03466e" fill-opacity="1"><g transform="translate(196.267473, 289.661379)"><g><path d="M 1.40625 -9.890625 C 1.40625 -4.109375 5.203125 0.28125 11.484375 0.28125 C 17.71875 0.28125 21.53125 -4.109375 21.53125 -9.890625 C 21.53125 -15.625 17.71875 -20.015625 11.484375 -20.015625 C 5.203125 -20.015625 1.40625 -15.625 1.40625 -9.890625 Z M 5.875 -9.890625 C 5.875 -13.65625 7.75 -16.09375 11.484375 -16.09375 C 15.203125 -16.09375 17.046875 -13.65625 17.046875 -9.890625 C 17.046875 -6.078125 15.203125 -3.640625 11.484375 -3.640625 C 7.75 -3.640625 5.875 -6.078125 5.875 -9.890625 Z M 5.875 -9.890625 "/></g></g></g><g fill="#03466e" fill-opacity="1"><g transform="translate(219.19635, 289.661379)"><g><path d="M 1.40625 -9.890625 C 1.40625 -4.109375 5.203125 0.28125 11.484375 0.28125 C 17.71875 0.28125 21.53125 -4.109375 21.53125 -9.890625 C 21.53125 -15.625 17.71875 -20.015625 11.484375 -20.015625 C 5.203125 -20.015625 1.40625 -15.625 1.40625 -9.890625 Z M 5.875 -9.890625 C 5.875 -13.65625 7.75 -16.09375 11.484375 -16.09375 C 15.203125 -16.09375 17.046875 -13.65625 17.046875 -9.890625 C 17.046875 -6.078125 15.203125 -3.640625 11.484375 -3.640625 C 7.75 -3.640625 5.875 -6.078125 5.875 -9.890625 Z M 5.875 -9.890625 "/></g></g></g><g fill="#03466e" fill-opacity="1"><g transform="translate(242.125227, 289.661379)"><g><path d="M 15.765625 0 L 15.765625 -3.921875 L 6.15625 -3.640625 L 6.15625 -19.734375 L 1.6875 -19.734375 L 1.6875 -2.078125 C 1.6875 -0.53125 2.546875 0.3125 4.09375 0.28125 Z M 15.765625 0 "/></g></g></g><g fill="#03466e" fill-opacity="1"><g transform="translate(258.446996, 289.661379)"><g><path d="M 19.0625 -5.4375 C 19.0625 -9.546875 13.5 -11.109375 9.859375 -12.34375 C 6.6875 -13.40625 6.21875 -13.75 6.21875 -14.640625 C 6.21875 -15.65625 7.46875 -16.09375 9.484375 -16.09375 C 11.921875 -16.09375 13.78125 -15.421875 13.78125 -13.015625 L 18.25 -13.015625 C 18.25 -16.9375 15.546875 -20.015625 9.484375 -20.015625 C 4.390625 -20.015625 1.734375 -18.171875 1.734375 -14.8125 C 1.734375 -10.953125 5.125 -9.828125 9.296875 -8.421875 C 12.1875 -7.453125 14.59375 -6.796875 14.59375 -5.375 C 14.59375 -4.3125 13.640625 -3.640625 10.75 -3.640625 C 6.828125 -3.640625 5.3125 -4.59375 5.3125 -7.609375 L 0.84375 -7.609375 C 0.84375 -2.625 3.5 0.28125 10.609375 0.28125 C 16.6875 0.28125 19.0625 -2.046875 19.0625 -5.4375 Z M 19.0625 -5.4375 "/></g></g></g><g mask="url(#2f5948396c)"><g transform="matrix(1, 0, 0, 1, 156, 140)"><g clip-path="url(#8a15543c87)"><g clip-path="url(#df434e72cf)"><path fill="#3871c1" d="M 12.59375 44.058594 C 13.578125 43.835938 14.777344 43.449219 15.964844 42.777344 L 18.664062 42.777344 C 16.65625 44.535156 14.324219 45.3125 12.648438 45.652344 C 10.113281 45.253906 7.652344 46.242188 5.3125 48.574219 C 1.894531 51.992188 1.855469 54.242188 1.855469 54.332031 L 1.855469 54.671875 L 9.46875 51.023438 C 9.910156 51.179688 12.023438 52.011719 13.300781 54.285156 C 14.113281 55.722656 14.234375 57.464844 13.652344 59.078125 C 11.800781 60.09375 6.085938 62.773438 5.839844 62.882812 L 5.867188 62.949219 L 5.839844 62.882812 L 5.460938 63.058594 L 5.820312 63.261719 C 5.839844 63.269531 7.617188 64.257812 9.949219 64.636719 C 10.492188 64.71875 11.089844 64.78125 11.726562 64.78125 C 13.644531 64.78125 15.875 64.25 17.773438 62.351562 C 20.378906 59.742188 20.921875 57.003906 20.914062 55.160156 C 21.191406 53.023438 22.039062 49.972656 24.488281 47.53125 L 29.253906 42.765625 L 36.304688 42.765625 C 36.324219 43.152344 36.25 43.558594 36 43.917969 C 35.226562 45.070312 34.398438 45.441406 35.375 46.664062 C 36.285156 47.808594 38.332031 46.066406 39.816406 47.226562 C 39.898438 47.300781 39.992188 47.382812 40.074219 47.46875 C 40.09375 47.484375 40.101562 47.496094 40.121094 47.511719 L 40.121094 47.503906 C 40.128906 47.511719 40.128906 47.511719 40.136719 47.523438 C 43.945312 51.328125 46.707031 58.496094 51.105469 62.894531 C 55.5 67.289062 62.035156 68.828125 65.351562 65.511719 C 68.667969 62.191406 66.566406 56.210938 62.171875 51.824219 C 58.542969 48.195312 53.011719 45.679688 49.058594 42.757812 L 51.824219 42.757812 C 52.761719 43.367188 53.757812 43.972656 54.78125 44.589844 C 55.683594 45.144531 56.605469 45.699219 57.5 46.277344 C 57.582031 46.113281 57.675781 45.945312 57.757812 45.78125 L 57.886719 45.511719 L 60.320312 46.296875 C 60.679688 46.417969 61.074219 46.214844 61.1875 45.855469 L 62.171875 42.765625 L 67.800781 42.765625 L 67.800781 41.027344 L 0.0507812 41.027344 L 0.0507812 42.765625 L 5.671875 42.765625 L 6.585938 45.523438 C 8.1875 44.5 9.855469 43.984375 11.5625 43.984375 C 11.910156 43.992188 12.253906 44.011719 12.59375 44.058594 Z M 47.960938 42.765625 C 49.609375 44.066406 51.574219 45.265625 53.628906 46.519531 C 56.511719 48.269531 59.488281 50.085938 61.710938 52.304688 C 63.867188 54.460938 65.398438 56.921875 66.015625 59.253906 C 66.464844 60.929688 66.632812 63.300781 64.890625 65.050781 C 64.117188 65.816406 63.113281 66.320312 61.941406 66.523438 C 69.203125 62.320312 61.519531 53.132812 55.453125 49.238281 C 51.472656 46.675781 49.023438 44.621094 47.371094 42.765625 Z M 11.375 50.820312 C 11.375 50.820312 16.527344 51.695312 14.824219 58.195312 C 14.824219 58.195312 15.394531 52.96875 11.375 50.820312 Z M 7.339844 62.976562 L 14.140625 59.703125 C 14.140625 59.703125 11.957031 61.945312 7.339844 62.976562 Z M 20.304688 55.761719 C 20.167969 58.027344 19.144531 60.164062 17.359375 61.953125 C 15.71875 63.59375 13.820312 64.148438 12.125 64.230469 C 13.617188 64.019531 15.238281 63.390625 16.675781 61.953125 C 18.464844 60.164062 19.515625 58.046875 19.699219 55.835938 C 19.714844 55.585938 19.734375 55.328125 19.726562 55.089844 C 19.726562 52.617188 18.675781 50.683594 17.699219 49.707031 C 15.660156 47.667969 13.578125 46.636719 11.503906 46.628906 C 11.21875 46.628906 10.945312 46.648438 10.65625 46.683594 C 8.917969 46.90625 7.183594 47.871094 5.515625 49.539062 C 3.5625 51.492188 2.761719 53.015625 2.429688 53.9375 C 2.59375 53.152344 3.230469 51.375 5.625 48.96875 C 7.292969 47.300781 9.046875 46.351562 10.824219 46.167969 C 11.109375 46.140625 11.394531 46.121094 11.691406 46.128906 C 13.820312 46.195312 15.976562 47.300781 18.105469 49.4375 C 19.125 50.460938 20.25 52.460938 20.316406 54.996094 C 20.324219 55.246094 20.324219 55.503906 20.304688 55.761719 Z M 23.496094 45.421875 C 22.960938 45.957031 22.039062 45.910156 21.441406 45.3125 C 20.839844 44.710938 20.792969 43.789062 21.328125 43.253906 L 21.816406 42.765625 L 26.140625 42.765625 Z M 23.496094 45.421875 " fill-opacity="1" fill-rule="nonzero"/></g><path fill="#3871c1" d="M 39.058594 48.65625 C 39.050781 48.648438 39.042969 48.636719 39.03125 48.628906 L 39.355469 48.296875 L 39.160156 48.417969 L 38.996094 48.582031 C 38.996094 48.582031 38.984375 48.574219 38.984375 48.574219 C 38.984375 48.574219 38.996094 48.582031 38.996094 48.582031 C 38.984375 48.574219 38.984375 48.574219 38.976562 48.5625 C 38.929688 48.515625 38.882812 48.472656 38.839844 48.433594 C 38.792969 48.40625 38.710938 48.371094 38.515625 48.371094 C 38.265625 48.371094 37.953125 48.425781 37.632812 48.488281 C 37.226562 48.5625 36.8125 48.636719 36.359375 48.636719 C 35.207031 48.636719 34.535156 48.09375 34.167969 47.632812 C 34.09375 47.550781 34.039062 47.457031 33.972656 47.375 C 33.964844 47.375 33.945312 47.375 33.9375 47.375 C 31.871094 47.375 29.917969 46.90625 28.167969 46.074219 L 25.613281 48.628906 C 23.511719 50.730469 22.765625 53.375 22.5 55.261719 C 22.5 56.007812 22.417969 56.875 22.175781 57.816406 C 24.65625 59.042969 27.300781 59.863281 30.027344 60.265625 L 30.324219 60.3125 L 30.332031 62.867188 C 30.332031 63.050781 30.40625 63.226562 30.535156 63.355469 C 30.664062 63.484375 30.839844 63.558594 31.023438 63.558594 L 37.078125 63.53125 C 37.261719 63.53125 37.4375 63.457031 37.566406 63.328125 C 37.695312 63.199219 37.769531 63.023438 37.769531 62.839844 L 37.761719 60.285156 L 38.054688 60.238281 C 40.609375 59.84375 43.078125 59.078125 45.398438 57.964844 C 44.882812 57.144531 44.386719 56.324219 43.886719 55.503906 C 42.277344 52.859375 40.753906 50.359375 39.058594 48.65625 Z M 39.058594 48.65625 " fill-opacity="1" fill-rule="nonzero"/><path fill="#3871c1" d="M 21.9375 18.347656 C 21.929688 18.355469 21.917969 18.363281 21.917969 18.363281 L 26.378906 22.824219 C 28.535156 21.359375 31.132812 20.503906 33.925781 20.503906 C 35.375 20.503906 36.773438 20.734375 38.082031 21.15625 L 40.386719 18.851562 C 43.003906 16.234375 43.5 12.714844 43.59375 11.257812 C 43.585938 10.972656 43.59375 10.679688 43.613281 10.375 L 43.613281 9.148438 C 41.75 8.421875 39.804688 7.90625 37.816406 7.609375 L 37.519531 7.5625 L 37.511719 5.011719 C 37.511719 4.828125 37.4375 4.652344 37.308594 4.523438 C 37.179688 4.394531 37.003906 4.320312 36.820312 4.320312 L 30.765625 4.347656 C 30.386719 4.347656 30.074219 4.660156 30.074219 5.039062 L 30.082031 7.59375 L 29.789062 7.636719 C 26.921875 8.082031 24.167969 8.992188 21.597656 10.339844 L 21.328125 10.476562 L 19.816406 8.414062 C 19.597656 8.109375 19.164062 8.035156 18.851562 8.265625 L 14.785156 11.242188 L 21.890625 18.347656 C 21.929688 18.363281 21.9375 18.355469 21.9375 18.347656 Z M 21.9375 18.347656 " fill-opacity="1" fill-rule="nonzero"/><g clip-path="url(#fa2712622b)"><path fill="#3871c1" d="M 67.820312 26.871094 L 67.820312 25.128906 L 62.199219 25.128906 L 61.101562 21.8125 C 61.058594 21.664062 60.964844 21.554688 60.84375 21.46875 C 59.90625 22.078125 58.945312 22.519531 57.96875 22.804688 L 57.953125 23.210938 C 57.953125 23.210938 56.246094 23.136719 56.246094 23.136719 C 55.96875 23.164062 55.695312 23.175781 55.417969 23.175781 C 55.363281 23.175781 55.304688 23.175781 55.25 23.175781 C 54.21875 23.257812 52.660156 23.515625 51.058594 24.226562 C 51.222656 24.519531 51.390625 24.824219 51.546875 25.128906 L 50.441406 25.128906 C 50.375 24.964844 50.300781 24.796875 50.230469 24.632812 C 49.953125 24.777344 49.683594 24.945312 49.410156 25.128906 L 46.921875 25.128906 C 49.730469 22.410156 53.296875 21.746094 55.203125 21.597656 C 55.277344 21.597656 55.34375 21.597656 55.417969 21.597656 C 55.675781 21.597656 55.933594 21.582031 56.183594 21.5625 C 56.253906 21.5625 56.300781 21.5625 56.3125 21.5625 L 56.46875 21.570312 L 56.46875 21.527344 C 58.449219 21.238281 60.382812 20.160156 62.238281 18.308594 C 65.96875 14.578125 66.003906 12.117188 66.003906 12.015625 L 66.003906 11.675781 L 57.691406 15.65625 C 57.222656 15.488281 54.890625 14.585938 53.472656 12.070312 C 52.578125 10.496094 52.449219 8.578125 53.09375 6.800781 C 55.113281 5.695312 61.378906 2.753906 61.65625 2.625 L 62.042969 2.449219 L 61.683594 2.246094 C 61.601562 2.199219 59.691406 1.152344 57.167969 0.746094 C 54.789062 0.359375 51.378906 0.488281 48.617188 3.242188 C 46.578125 5.277344 45.398438 7.710938 45.207031 10.292969 L 45.195312 10.292969 L 45.195312 10.429688 C 45.179688 10.726562 45.167969 11.019531 45.179688 11.296875 C 45.085938 12.898438 44.542969 16.9375 41.511719 19.96875 L 36.359375 25.121094 L 26.460938 25.121094 L 8.84375 7.507812 C 8.832031 7.5 7.984375 6.753906 7.847656 6.035156 C 7.78125 5.703125 7.644531 5.445312 7.433594 5.269531 C 6.832031 4.773438 5.671875 3.859375 4.648438 3.046875 C 3.882812 2.441406 3.230469 1.925781 2.964844 1.703125 C 2.851562 1.609375 2.6875 1.609375 2.574219 1.710938 L 2.566406 1.722656 L 0.992188 3.296875 C 0.992188 3.296875 0.980469 3.308594 0.980469 3.308594 C 0.863281 3.453125 0.851562 3.65625 0.972656 3.804688 C 1.136719 4.007812 1.480469 4.449219 1.867188 4.945312 C 2.6875 6.015625 3.800781 7.480469 4.484375 8.21875 C 4.695312 8.449219 4.972656 8.597656 5.304688 8.660156 C 5.480469 8.699219 5.652344 8.773438 5.820312 8.863281 C 5.820312 8.863281 5.828125 8.863281 5.828125 8.863281 C 6.316406 9.148438 6.722656 9.609375 6.730469 9.621094 L 6.742188 9.628906 L 22.242188 25.128906 L 20.011719 25.128906 L 18.261719 23.378906 C 17.964844 23.941406 17.6875 24.53125 17.441406 25.128906 L 16.335938 25.128906 C 16.738281 24.328125 17.191406 23.554688 17.699219 22.824219 L 12.742188 17.867188 C 11.726562 19.195312 10.84375 20.613281 10.09375 22.117188 L 9.964844 22.382812 L 7.535156 21.597656 C 7.175781 21.480469 6.777344 21.683594 6.667969 22.042969 L 5.679688 25.128906 L 0.0507812 25.128906 L 0.0507812 26.871094 Z M 55.546875 15.730469 C 55.546875 15.730469 50.042969 14.789062 51.867188 7.867188 C 51.867188 7.867188 51.261719 13.433594 55.546875 15.730469 Z M 59.859375 2.761719 L 52.605469 6.246094 C 52.597656 6.253906 54.929688 3.859375 59.859375 2.761719 Z M 49.167969 3.851562 C 50.910156 2.109375 52.949219 1.511719 54.753906 1.425781 C 53.160156 1.65625 51.4375 2.320312 49.90625 3.851562 C 48 5.757812 46.882812 8.015625 46.679688 10.375 C 46.664062 10.640625 46.644531 10.910156 46.644531 11.167969 C 46.644531 13.804688 47.757812 15.859375 48.808594 16.910156 C 50.976562 19.074219 53.195312 20.179688 55.40625 20.1875 C 55.710938 20.1875 56.015625 20.171875 56.3125 20.132812 C 58.171875 19.894531 60.015625 18.871094 61.792969 17.082031 C 63.875 15 64.734375 13.378906 65.082031 12.402344 C 64.910156 13.242188 64.234375 15.140625 61.675781 17.703125 C 59.894531 19.480469 58.023438 20.484375 56.125 20.6875 C 55.824219 20.722656 55.507812 20.734375 55.203125 20.722656 C 52.9375 20.660156 50.632812 19.46875 48.367188 17.203125 C 47.269531 16.105469 46.082031 13.976562 46.015625 11.277344 C 46.007812 11.011719 46.015625 10.742188 46.035156 10.46875 C 46.175781 8.042969 47.261719 5.765625 49.167969 3.851562 Z M 43.539062 21.066406 C 44.074219 20.53125 44.996094 20.578125 45.59375 21.175781 C 46.191406 21.773438 46.238281 22.695312 45.703125 23.230469 L 43.796875 25.136719 L 39.472656 25.136719 Z M 2.816406 1.8125 L 2.804688 1.824219 C 2.796875 1.8125 2.789062 1.8125 2.789062 1.804688 C 2.796875 1.804688 2.804688 1.8125 2.816406 1.8125 Z M 7.230469 7.554688 C 7.230469 7.554688 6.980469 6.171875 6.058594 5.507812 C 5.175781 4.863281 2.816406 2.699219 2.667969 2.570312 L 2.863281 2.71875 L 2.992188 2.589844 C 3.292969 2.828125 3.691406 3.140625 4.125 3.480469 L 4.289062 3.621094 C 5.292969 4.414062 6.429688 5.304688 7.007812 5.796875 C 7.089844 5.867188 7.15625 5.996094 7.191406 6.171875 C 7.359375 7.046875 8.179688 7.832031 8.390625 8.015625 L 25.511719 25.148438 L 24.65625 25.148438 Z M 7.230469 7.554688 " fill-opacity="1" fill-rule="nonzero"/></g></g></g></g></svg>